#!OML:ASF X:\für Bonn\!DataBase\2005_08_12_Daniel\c3d\Daniel.ASF
:FULLY-SPECIFIED
:DEGREES
875
root 7.77892 16.7704 25.7655 -17.3632 44.194 -11.3908
lowerback 12.3687 -3.0702 11.2694
upperback 2.39134 -2.40465 2.08797
thorax -4.77781 -1.29634 -3.7234
lowerneck 1.50918 6.62841 0.393452
upperneck 8.05909 9.72455 -9.76165
head 2.92587 4.66559 -3.05194
rclavicle -1.64432e-014 1.78906e-014
rhumerus -42.6366 -42.8562 -52.26
rradius 7.10059
rwrist 51.8291
rhand -19.9936 12.1843
rfingers 7.12502
rthumb 6.34597 -17.7007
lclavicle -1.64432e-014 1.78906e-014
lhumerus -143.055 51.952 -55.132
lradius 11.9136
lwrist -125.674
lhand -7.07006 -4.111
lfingers 7.12502
lthumb 18.8034 25.0002
rfemur -16.3661 -0.136516 22.6475
rtibia 36.7644
rfoot -11.4514 6.00084
rtoes -12.2781
lfemur -7.60858 4.65678 -12.1365
ltibia 80.7013
lfoot -0.789265 -9.81241
ltoes -3.96818
876
root 7.85019 16.7987 25.8758 -17.2567 44.246 -11.1352
lowerback 12.6676 -2.90468 11.1585
upperback 2.40312 -2.16048 2.04917
thorax -4.89161 -1.1797 -3.73764
lowerneck 1.61824 6.5616 0.39995
upperneck 7.94835 9.62237 -9.7794
head 2.86326 4.62212 -3.0667
rclavicle -4.42979e-014 -1.92821e-014
rhumerus -41.8408 -42.6977 -52.7232
rradius 7.4536
rwrist 52.0461
rhand -19.9838 12.4101
rfingers 7.12502
rthumb 6.3555 -17.4745
lclavicle -4.42979e-014 -1.92821e-014
lhumerus -139.199 54.1253 -50.8373
lradius 11.8422
lwrist -122.242
lhand -6.24057 -4.25375
lfingers 7.12502
lthumb 19.6011 24.7781
rfemur -15.6459 0.111636 22.576
rtibia 36.5966
rfoot -11.9028 5.82566
rtoes -12.2251
lfemur -9.10528 5.65901 -12.4928
ltibia 81.1281
lfoot -1.69786 -10.4277
ltoes -5.40704
877
root 7.92371 16.8319 25.9849 -17.1476 44.2729 -10.8856
lowerback 12.9612 -2.72687 11.0734
upperback 2.42406 -1.89991 1.9934
thorax -4.99192 -1.05468 -3.7892
lowerneck 1.59932 6.50721 0.307747
upperneck 7.92701 9.53603 -9.64009
head 2.83899 4.57997 -3.00433
rclavicle 5.57218e-014 2.62396e-014
rhumerus -41.0665 -42.563 -53.179
rradius 7.86511
rwrist 52.3547
rhand -19.9953 12.6353
rfingers 7.12502
rthumb 6.34436 -17.2497
lclavicle 5.57218e-014 2.62396e-014
lhumerus -134.069 56.6076 -45.0703
lradius 11.7901
lwrist -117.702
lhand -5.66798 -4.35075
lfingers 7.12502
lthumb 20.1515 24.6241
rfemur -14.8816 0.396131 22.5171
rtibia 36.343
rfoot -12.3086 5.6757
rtoes -12.116
lfemur -10.5267 6.70873 -12.8575
ltibia 81.334
lfoot -2.72377 -10.899
ltoes -7.70668
878
root 7.99541 16.8635 26.091 -16.9507 44.2989 -10.5526
lowerback 13.2713 -2.53464 10.9239
upperback 2.41239 -1.62822 1.90873
thorax -5.13382 -0.927048 -3.83846
lowerneck 1.60066 6.44081 0.311778
upperneck 7.92051 9.44361 -9.6051
head 2.82867 4.53563 -2.9959
rclavicle 5.2181e-016 -7.35503e-015
rhumerus -40.3995 -42.3703 -53.5538
rradius 8.3637
rwrist 52.6542
rhand -19.9094 12.8198
rfingers 7.12502
rthumb 6.42726 -17.0627
lclavicle 5.2181e-016 -7.35503e-015
lhumerus -127.076 59.1128 -37.281
lradius 11.8039
lwrist -112.23
lhand -5.19258 -4.50709
lfingers 7.12502
lthumb 20.6084 24.4189
rfemur -14.16 0.738557 22.393
rtibia 36.0876
rfoot -12.7342 5.4944
rtoes -12.0196
lfemur -11.8635 7.72367 -13.3027
ltibia 81.3384
lfoot -3.72078 -11.1912
ltoes -9.49389
879
root 8.06985 16.8977 26.1956 -16.7887 44.2713 -10.2106
lowerback 13.6126 -2.3267 10.7638
upperback 2.40684 -1.33354 1.84129
thorax -5.28274 -0.787774 -3.8692
lowerneck 1.50941 6.37358 0.253141
upperneck 8.04283 9.36238 -9.51962
head 2.87292 4.48948 -2.95495
rclavicle -4.85159e-014 -2.62396e-014
rhumerus -39.7414 -42.1675 -53.9077
rradius 8.87527
rwrist 52.9628
rhand -19.8973 13.1018
rfingers 7.12502
rthumb 6.43892 -16.7803
lclavicle -4.85159e-014 -2.62396e-014
lhumerus -116.773 61.5378 -25.7421
lradius 11.9097
lwrist -105.125
lhand -4.98128 -4.51818
lfingers 7.12502
lthumb 20.8114 24.3857
rfemur -13.3983 1.06809 22.2822
rtibia 35.8425
rfoot -13.1526 5.30973
rtoes -11.7931
lfemur -13.0225 8.73505 -13.7499
ltibia 81.1136
lfoot -4.68688 -11.4246
ltoes -10.0653
880
root 8.14259 16.922 26.2978 -16.5494 44.2813 -9.86746
lowerback 13.8554 -2.11155 10.6046
upperback 2.40106 -1.04383 1.78164
thorax -5.3787 -0.648635 -3.89497
lowerneck 1.36051 6.30505 0.118483
upperneck 8.17603 9.27968 -9.3996
head 2.92492 4.43921 -2.88685
rclavicle 1.03853e-013 3.97569e-016
rhumerus -39.1812 -41.8596 -54.0722
rradius 9.46475
rwrist 53.1773
rhand -19.8127 13.5477
rfingers 7.12502
rthumb 6.52067 -16.3319
lclavicle 1.03853e-013 3.97569e-016
lhumerus -105.433 62.8136 -13.0964
lradius 12.118
lwrist -98.0157
lhand -4.96093 -4.58233
lfingers 7.12502
lthumb 20.8309 24.3194
rfemur -12.7859 1.39992 22.172
rtibia 35.6634
rfoot -13.6067 5.09096
rtoes -11.8456
lfemur -14.2341 9.78406 -14.2273
ltibia 80.719
lfoot -5.58158 -11.7533
ltoes -9.70065
881
root 8.21628 16.9451 26.4025 -16.341 44.3602 -9.53738
lowerback 14.0703 -1.91857 10.4792
upperback 2.40058 -0.787133 1.66926
thorax -5.46 -0.526036 -3.9915
lowerneck 1.13471 6.22977 0.0999461
upperneck 8.39612 9.20013 -9.30589
head 3.0297 4.38827 -2.84592
rclavicle 2.13259e-014 -2.3059e-014
rhumerus -38.6659 -41.6156 -54.2893
rradius 10.0242
rwrist 53.3038
rhand -19.873 14.2332
rfingers 7.12502
rthumb 6.46246 -15.6482
lclavicle 2.13259e-014 -2.3059e-014
lhumerus -93.1022 62.8352 0.547369
lradius 12.4083
lwrist -90.6006
lhand -5.16296 -4.60956
lfingers 7.12502
lthumb 20.6368 24.3134
rfemur -12.1554 1.69922 22.0553
rtibia 35.5292
rfoot -14.1175 4.82661
rtoes -11.8177
lfemur -15.3676 10.7607 -14.7123
ltibia 80.1653
lfoot -6.4425 -12.0493
ltoes -9.72502
882
root 8.28914 16.9659 26.5085 -16.1506 44.4716 -9.20266
lowerback 14.2752 -1.73591 10.2816
upperback 2.41175 -0.556076 1.58321
thorax -5.52615 -0.413189 -4.01582
lowerneck 1.01945 6.16476 -0.109005
upperneck 8.52661 9.11489 -9.10776
head 3.06584 4.33752 -2.73959
rclavicle -9.88333e-014 2.16675e-014
rhumerus -35.6595 -37.3094 -58.3832
rradius 10.6172
rwrist 48.4414
rhand -20.0891 14.0483
rfingers 7.12502
rthumb 6.25375 -15.8394
lclavicle -9.88333e-014 2.16675e-014
lhumerus -82.8138 61.7161 12.0763
lradius 12.7636
lwrist -83.6002
lhand -5.58525 -4.78549
lfingers 7.12502
lthumb 20.231 24.1809
rfemur -11.507 2.00937 21.9493
rtibia 35.445
rfoot -14.6825 4.53526
rtoes -11.9576
lfemur -16.4192 11.7435 -15.1918
ltibia 79.464
lfoot -7.60212 -12.0611
ltoes -10.2156
883
root 8.36137 16.9848 26.617 -15.9642 44.6606 -8.94693
lowerback 14.3913 -1.57382 10.0862
upperback 2.38964 -0.359748 1.53528
thorax -5.58472 -0.317897 -3.99482
lowerneck 0.98913 6.10299 -0.430408
upperneck 8.68271 9.03471 -8.88566
head 3.08824 4.28854 -2.60805
rclavicle 1.2424e-015 3.97569e-016
rhumerus -33.4743 -33.2375 -61.5091
rradius 11.2971
rwrist 43.9838
rhand -20.3246 14.1726
rfingers 7.12502
rthumb 6.02645 -15.7217
lclavicle 1.2424e-015 3.97569e-016
lhumerus -75.1175 59.9591 20.9248
lradius 13.1733
lwrist -77.3217
lhand -6.10899 -5.00138
lfingers 7.12502
lthumb 19.7276 24.0176
rfemur -10.9119 2.35609 21.9077
rtibia 35.3822
rfoot -15.2804 4.14834
rtoes -11.8239
lfemur -17.5071 12.6647 -15.6336
ltibia 78.6625
lfoot -8.71825 -12.0306
ltoes -10.4395
